<?xml version="1.0" standalone="no"?>
<!DOCTYPE svg PUBLIC "-//W3C//DTD SVG 20010904//EN"
 "http://www.w3.org/TR/2001/REC-SVG-20010904/DTD/svg10.dtd">
<svg version="1.0" xmlns="http://www.w3.org/2000/svg"
 width="360.000000pt" height="360.000000pt" viewBox="0 0 360.000000 360.000000"
 preserveAspectRatio="xMidYMid meet">
<metadata>
Created by potrace 1.11, written by Peter Selinger 2001-2013
</metadata>
<g transform="translate(0.000000,360.000000) scale(0.100000,-0.100000)"
fill="#000000" stroke="none">
<path d="M2936 2288 c1 -40 -5 -98 -13 -128 -17 -66 -54 -160 -64 -160 -4 0
-10 -11 -13 -25 -4 -14 -11 -25 -16 -25 -6 0 -10 -5 -10 -10 0 -18 -90 -115
-145 -158 -51 -40 -176 -110 -210 -118 -24 -7 -85 -31 -91 -37 -3 -3 39 -5 95
-5 61 1 101 5 101 11 0 6 3 8 6 4 16 -15 227 81 238 109 3 8 12 14 21 14 8 0
15 4 15 9 0 5 15 25 34 45 36 36 106 170 109 206 1 11 4 20 7 20 3 0 5 42 4
93 -1 50 -3 92 -4 92 -1 0 -3 11 -6 24 -2 14 -9 30 -15 38 -6 7 -8 13 -5 13 4
0 -1 14 -11 30 -9 17 -20 30 -23 30 -3 0 -5 -33 -4 -72z"/>
<path d="M3136 2040 c-12 -75 -88 -218 -150 -282 -92 -95 -221 -170 -328 -192
-109 -22 -146 -26 -210 -22 -175 11 -348 64 -673 206 -242 107 -375 155 -500
181 -69 15 -265 18 -345 6 -71 -11 -185 -49 -258 -86 -76 -39 -215 -138 -204
-145 5 -3 26 7 48 22 40 27 57 35 176 77 153 54 343 58 533 11 27 -6 123 -39
150 -51 116 -51 249 -112 359 -164 341 -162 630 -224 843 -181 74 15 207 60
211 71 2 5 8 9 13 9 36 0 221 160 235 203 3 9 10 17 15 17 5 0 9 5 9 11 0 6 8
23 18 37 17 25 50 105 56 135 20 98 24 139 16 162 -5 15 -8 8 -14 -25z"/>
<path d="M852 1698 c-40 -4 -87 -12 -105 -17 -31 -9 -30 -9 18 -11 200 -6 331
-43 595 -168 243 -114 286 -133 373 -166 260 -97 495 -125 672 -77 l70 18
-110 1 c-113 0 -137 3 -240 27 -119 28 -274 86 -490 185 -117 54 -149 67 -175
75 -14 4 -30 11 -36 16 -14 11 -195 74 -271 93 -33 9 -94 19 -135 22 -40 3
-77 7 -83 8 -5 1 -43 -1 -83 -6z"/>
</g>
</svg>
